<?xml version="1.0" encoding="utf-8"?>
<!-- Generator: Adobe Illustrator 16.2.1, SVG Export Plug-In . SVG Version: 6.00 Build 0)  -->
<!DOCTYPE svg PUBLIC "-//W3C//DTD SVG 1.1//EN" "http://www.w3.org/Graphics/SVG/1.1/DTD/svg11.dtd">
<svg version="1.1" id="Layer_1" xmlns="http://www.w3.org/2000/svg" xmlns:xlink="http://www.w3.org/1999/xlink" x="0px" y="0px"
	 width="171.209px" height="27px" viewBox="0 0 171.209 27" enable-background="new 0 0 171.209 27" xml:space="preserve">
<g>
	<defs>
		<rect id="SVGID_1_" width="171.209" height="27"/>
	</defs>
	<clipPath id="SVGID_2_">
		<use xlink:href="#SVGID_1_"  overflow="visible"/>
	</clipPath>
	<rect x="123.187" clip-path="url(#SVGID_2_)" fill="#EE6846" width="48.022" height="27"/>
	<rect x="0" clip-path="url(#SVGID_2_)" fill="#FFFFFF" width="123.187" height="27"/>
	<g clip-path="url(#SVGID_2_)">
		<text transform="matrix(1 0 0 1 128.5986 19.0732)"><tspan x="0" y="0" fill="#FFFFFF" font-family="'MarkPro-Bold'" font-size="15.8184">R</tspan><tspan x="10.408" y="0" fill="#FFFFFF" font-family="'MarkPro-Bold'" font-size="15.8184">a</tspan><tspan x="20.042" y="0" fill="#FFFFFF" font-family="'MarkPro-Bold'" font-size="15.8184">il</tspan><tspan x="28.283" y="0" fill="#FFFFFF" font-family="'MarkPro-Bold'" font-size="15.8184">s</tspan></text>
	</g>
	<path clip-path="url(#SVGID_2_)" fill="#4E4E4E" d="M47.322,13.537c0,3.306-2.429,5.742-5.854,5.742
		c-3.426,0-5.854-2.437-5.854-5.742c0-3.307,2.428-5.743,5.854-5.743C44.894,7.794,47.322,10.23,47.322,13.537 M38.739,13.537
		c0,1.692,1.116,2.863,2.729,2.863c1.613,0,2.729-1.171,2.729-2.863c0-1.693-1.115-2.864-2.729-2.864
		C39.855,10.673,38.739,11.844,38.739,13.537"/>
	<path clip-path="url(#SVGID_2_)" fill="#4E4E4E" d="M55.771,13.972v5.102h-2.816v-4.216c0-0.783-0.372-1.202-0.989-1.202
		c-0.562,0-0.981,0.372-0.981,1.218v4.2H48.17v-7.839h2.682v0.808c0.443-0.681,1.139-1.021,2.12-1.021
		C54.593,11.021,55.771,12.168,55.771,13.972"/>
	<path clip-path="url(#SVGID_2_)" fill="#4E4E4E" d="M64.503,15.15c0,0.269-0.024,0.68-0.056,0.838H59.33
		c0.189,0.633,0.664,0.95,1.408,0.95c0.506,0,1.052-0.214,1.479-0.633l1.93,1.613c-0.759,0.822-1.993,1.36-3.543,1.36
		c-2.508,0-4.185-1.629-4.185-4.058c0-2.483,1.661-4.2,4.074-4.2C62.866,11.021,64.496,12.698,64.503,15.15 M59.338,14.288h2.357
		c-0.206-0.609-0.602-0.901-1.187-0.901C59.907,13.387,59.52,13.679,59.338,14.288"/>
	<polygon clip-path="url(#SVGID_2_)" fill="#4E4E4E" points="81.01,19.074 78.004,19.074 78.004,12.145 76.001,19.074 
		73.244,19.074 71.241,12.145 71.241,19.074 68.235,19.074 68.235,8 72.404,8 74.627,14.66 76.841,8 81.01,8 	"/>
	<path clip-path="url(#SVGID_2_)" fill="#4E4E4E" d="M90.42,15.15c0,2.381-1.812,4.129-4.272,4.129s-4.271-1.748-4.271-4.129
		s1.812-4.129,4.271-4.129S90.42,12.77,90.42,15.15 M84.756,15.15c0,0.878,0.585,1.511,1.392,1.511s1.392-0.633,1.392-1.511
		s-0.585-1.511-1.392-1.511S84.756,14.272,84.756,15.15"/>
	<path clip-path="url(#SVGID_2_)" fill="#4E4E4E" d="M98.691,13.972v5.102h-2.816v-4.216c0-0.783-0.372-1.202-0.988-1.202
		c-0.562,0-0.981,0.372-0.981,1.218v4.2H91.09v-7.839h2.681v0.808c0.443-0.681,1.14-1.021,2.12-1.021
		C97.512,11.021,98.691,12.168,98.691,13.972"/>
	<path clip-path="url(#SVGID_2_)" fill="#4E4E4E" d="M109.541,11.852c0.442-0.554,1.1-0.831,1.985-0.831
		c1.621,0,2.8,1.147,2.8,2.951v5.103h-2.815v-4.217c0-0.782-0.372-1.202-0.989-1.202c-0.546,0-0.98,0.356-0.98,1.218v4.201h-2.816
		V7.667h2.816V11.852z"/>
	<path clip-path="url(#SVGID_2_)" fill="#4E4E4E" d="M99.721,11.234c0.533,0,0.967-0.377,0.967-0.911h0.125v1.088h-1.092V11.234z"/>
	<path clip-path="url(#SVGID_2_)" fill="#4E4F4F" d="M103.504,15.348v-1.629h2.346v-2.484h-2.346V8.988h-2.816v2.246h-1.423v2.484
		h1.423v2.064c0,1.922,0.91,3.29,3.141,3.29c0.855,0,1.481-0.141,2.021-0.378v-2.239h-1.293
		C103.947,16.456,103.504,16.194,103.504,15.348"/>
	<rect x="103.828" y="17.979" clip-path="url(#SVGID_2_)" fill="#4E4F4F" width="2.021" height="1.095"/>
	<polygon clip-path="url(#SVGID_2_)" fill="#E16A4C" points="7.179,12.214 27.673,12.214 17.426,21.026 	"/>
	<polygon clip-path="url(#SVGID_2_)" fill="#EE6846" points="27.673,12.214 7.179,12.214 10.726,6.364 24.125,6.364 	"/>
	<polygon clip-path="url(#SVGID_2_)" fill="#D45836" points="23.141,12.214 11.711,12.214 10.726,6.364 24.126,6.364 	"/>
	<polygon clip-path="url(#SVGID_2_)" fill="#D45836" points="7.179,12.214 27.673,12.214 17.426,21.026 	"/>
	<polygon clip-path="url(#SVGID_2_)" fill="#EE6846" points="23.081,12.214 11.771,12.214 17.426,6.364 	"/>
	<polygon clip-path="url(#SVGID_2_)" fill="#B94426" points="11.711,12.214 23.14,12.214 17.426,21.026 	"/>
</g>
</svg>
