<?xml version="1.0" encoding="utf-8"?>
<!-- Generator: Adobe Illustrator 16.2.1, SVG Export Plug-In . SVG Version: 6.00 Build 0)  -->
<!DOCTYPE svg PUBLIC "-//W3C//DTD SVG 1.1//EN" "http://www.w3.org/Graphics/SVG/1.1/DTD/svg11.dtd">
<svg version="1.1" id="Layer_1" xmlns="http://www.w3.org/2000/svg" xmlns:xlink="http://www.w3.org/1999/xlink" x="0px" y="0px"
	 width="178.14px" height="27px" viewBox="0 0 178.14 27" enable-background="new 0 0 178.14 27" xml:space="preserve">
<g>
	<defs>
		<rect id="SVGID_1_" width="178.14" height="27"/>
	</defs>
	<clipPath id="SVGID_2_">
		<use xlink:href="#SVGID_1_"  overflow="visible"/>
	</clipPath>
	<rect x="0.001" clip-path="url(#SVGID_2_)" fill="#FFFFFF" width="123.187" height="27"/>
	<rect x="123.188" clip-path="url(#SVGID_2_)" fill="#52ACA4" width="54.952" height="27"/>
	<g clip-path="url(#SVGID_2_)">
		<text transform="matrix(1 0 0 1 128.5986 19.0732)"><tspan x="0" y="0" fill="#FFFFFF" font-family="'MarkPro-Bold'" font-size="15.8184">HT</tspan><tspan x="21.584" y="0" fill="#FFFFFF" font-family="'MarkPro-Bold'" font-size="15.8184">M</tspan><tspan x="36.366" y="0" fill="#FFFFFF" font-family="'MarkPro-Bold'" font-size="15.8184">L</tspan></text>
	</g>
	<path clip-path="url(#SVGID_2_)" fill="#4E4E4E" d="M47.323,13.536c0,3.307-2.429,5.743-5.854,5.743
		c-3.426,0-5.854-2.437-5.854-5.743c0-3.306,2.428-5.742,5.854-5.742C44.894,7.794,47.323,10.23,47.323,13.536 M38.74,13.536
		c0,1.693,1.116,2.864,2.729,2.864c1.613,0,2.729-1.171,2.729-2.864c0-1.692-1.115-2.863-2.729-2.863
		C39.855,10.673,38.74,11.844,38.74,13.536"/>
	<path clip-path="url(#SVGID_2_)" fill="#4E4E4E" d="M55.772,13.972v5.102h-2.816v-4.216c0-0.783-0.372-1.202-0.989-1.202
		c-0.562,0-0.981,0.371-0.981,1.218v4.2H48.17v-7.839h2.682v0.808c0.443-0.681,1.139-1.021,2.12-1.021
		C54.594,11.021,55.772,12.168,55.772,13.972"/>
	<path clip-path="url(#SVGID_2_)" fill="#4E4E4E" d="M64.504,15.15c0,0.269-0.024,0.68-0.056,0.838h-5.118
		c0.189,0.633,0.664,0.949,1.408,0.949c0.506,0,1.052-0.214,1.479-0.633l1.93,1.614c-0.759,0.822-1.993,1.36-3.543,1.36
		c-2.508,0-4.185-1.629-4.185-4.059c0-2.483,1.661-4.2,4.074-4.2C62.866,11.021,64.496,12.698,64.504,15.15 M59.338,14.288h2.357
		c-0.206-0.609-0.602-0.902-1.187-0.902C59.908,13.386,59.52,13.679,59.338,14.288"/>
	<polygon clip-path="url(#SVGID_2_)" fill="#4E4E4E" points="81.01,19.073 78.004,19.073 78.004,12.145 76.001,19.073 
		73.245,19.073 71.242,12.145 71.242,19.073 68.235,19.073 68.235,8 72.404,8 74.627,14.659 76.842,8 81.01,8 	"/>
	<path clip-path="url(#SVGID_2_)" fill="#4E4E4E" d="M90.42,15.15c0,2.381-1.812,4.129-4.271,4.129s-4.271-1.748-4.271-4.129
		s1.812-4.13,4.271-4.13S90.42,12.77,90.42,15.15 M84.756,15.15c0,0.878,0.585,1.511,1.392,1.511s1.392-0.633,1.392-1.511
		s-0.585-1.511-1.392-1.511S84.756,14.272,84.756,15.15"/>
	<path clip-path="url(#SVGID_2_)" fill="#4E4E4E" d="M98.691,13.972v5.102h-2.815v-4.216c0-0.783-0.373-1.202-0.99-1.202
		c-0.561,0-0.98,0.371-0.98,1.218v4.2h-2.816v-7.839h2.681v0.808c0.443-0.681,1.14-1.021,2.121-1.021
		C97.513,11.021,98.691,12.168,98.691,13.972"/>
	<path clip-path="url(#SVGID_2_)" fill="#4E4E4E" d="M109.541,11.852c0.443-0.554,1.1-0.831,1.985-0.831
		c1.622,0,2.801,1.147,2.801,2.951v5.102h-2.816v-4.216c0-0.783-0.371-1.202-0.988-1.202c-0.547,0-0.981,0.355-0.981,1.218v4.2
		h-2.815V7.667h2.815V11.852z"/>
	<path clip-path="url(#SVGID_2_)" fill="#4E4E4E" d="M99.721,11.234c0.534,0,0.968-0.377,0.968-0.911h0.124v1.088h-1.092V11.234z"/>
	<path clip-path="url(#SVGID_2_)" fill="#4E4F4F" d="M103.505,15.348v-1.629h2.345v-2.484h-2.345V8.988h-2.816v2.246h-1.424v2.484
		h1.424v2.063c0,1.923,0.91,3.291,3.141,3.291c0.855,0,1.48-0.141,2.021-0.378v-2.24h-1.293
		C103.948,16.455,103.505,16.194,103.505,15.348"/>
	<rect x="103.829" y="17.979" clip-path="url(#SVGID_2_)" fill="#4E4F4F" width="2.021" height="1.095"/>
	<polygon clip-path="url(#SVGID_2_)" fill="#46ADA4" points="14.867,5.027 7.133,10.362 7.133,13.37 7.133,16.378 14.867,21.714 
		14.867,15.698 11.493,13.37 14.867,11.042 	"/>
	<polygon clip-path="url(#SVGID_2_)" fill="#119C8E" points="7.133,13.37 7.133,16.378 14.867,21.714 14.867,15.698 11.493,13.37 	
		"/>
	<polygon clip-path="url(#SVGID_2_)" fill="#119C8E" points="18.505,5.027 18.505,11.042 21.88,13.37 18.505,15.698 18.505,21.714 
		26.238,16.378 26.238,13.37 26.238,10.362 	"/>
	<polygon clip-path="url(#SVGID_2_)" fill="#017E71" points="26.239,13.37 26.239,16.378 18.505,21.714 18.505,15.698 21.879,13.37 
			"/>
</g>
</svg>
