<?xml version="1.0" encoding="utf-8"?>
<!-- Generator: Adobe Illustrator 16.2.1, SVG Export Plug-In . SVG Version: 6.00 Build 0)  -->
<!DOCTYPE svg PUBLIC "-//W3C//DTD SVG 1.1//EN" "http://www.w3.org/Graphics/SVG/1.1/DTD/svg11.dtd">
<svg version="1.1" id="Layer_1" xmlns="http://www.w3.org/2000/svg" xmlns:xlink="http://www.w3.org/1999/xlink" x="0px" y="0px"
	 width="255.312px" height="27px" viewBox="0 0 255.312 27" enable-background="new 0 0 255.312 27" xml:space="preserve">
<g>
	<defs>
		<rect id="SVGID_1_" width="255.312" height="27"/>
	</defs>
	<clipPath id="SVGID_2_">
		<use xlink:href="#SVGID_1_"  overflow="visible"/>
	</clipPath>
	<rect clip-path="url(#SVGID_2_)" fill="#FFFFFF" width="119.958" height="26.778"/>
	<polygon clip-path="url(#SVGID_2_)" fill="#79C8EC" points="255.312,27 119.958,26.778 119.958,0 255.312,0.222 	"/>
	<g clip-path="url(#SVGID_2_)">
		<text transform="matrix(1 0 0 1 127.3198 18.917)"><tspan x="0" y="0" fill="#FFFFFF" font-family="'MarkPro-Bold'" font-size="15.6885">G</tspan><tspan x="12.472" y="0" fill="#FFFFFF" font-family="'MarkPro-Bold'" font-size="15.6885">r</tspan><tspan x="18.716" y="0" fill="#FFFFFF" font-family="'MarkPro-Bold'" font-size="15.6885">o</tspan><tspan x="27.73" y="0" fill="#FFFFFF" font-family="'MarkPro-Bold'" font-size="15.6885">w</tspan><tspan x="41.503" y="0" fill="#FFFFFF" font-family="'MarkPro-Bold'" font-size="15.6885">t</tspan><tspan x="48.681" y="0" fill="#FFFFFF" font-family="'MarkPro-Bold'" font-size="15.6885">h</tspan><tspan x="57.89" y="0" fill="#FFFFFF" font-family="'MarkPro-Bold'" font-size="15.6885"> </tspan><tspan x="61.695" y="0" fill="#FFFFFF" font-family="'MarkPro-Bold'" font-size="15.6885">H</tspan><tspan x="73.791" y="0" fill="#FFFFFF" font-family="'MarkPro-Bold'" font-size="15.6885">a</tspan><tspan x="83.25" y="0" fill="#FFFFFF" font-family="'MarkPro-Bold'" font-size="15.6885">c</tspan><tspan x="91.103" y="0" fill="#FFFFFF" font-family="'MarkPro-Bold'" font-size="15.6885">k</tspan><tspan x="99.566" y="0" fill="#FFFFFF" font-family="'MarkPro-Bold'" font-size="15.6885">i</tspan><tspan x="103.574" y="0" fill="#FFFFFF" font-family="'MarkPro-Bold'" font-size="15.6885">n</tspan><tspan x="112.689" y="0" fill="#FFFFFF" font-family="'MarkPro-Bold'" font-size="15.6885">g</tspan></text>
	</g>
	<path clip-path="url(#SVGID_2_)" fill="#4E4E4E" d="M46.934,13.426c0,3.278-2.408,5.695-5.806,5.695s-5.806-2.417-5.806-5.695
		c0-3.279,2.408-5.696,5.806-5.696S46.934,10.146,46.934,13.426 M38.421,13.426c0,1.678,1.106,2.84,2.707,2.84
		s2.707-1.162,2.707-2.84c0-1.679-1.106-2.841-2.707-2.841S38.421,11.747,38.421,13.426"/>
	<path clip-path="url(#SVGID_2_)" fill="#4E4E4E" d="M55.313,13.856v5.061h-2.793v-4.182c0-0.776-0.368-1.192-0.98-1.192
		c-0.557,0-0.973,0.368-0.973,1.208v4.166h-2.793v-7.774h2.659v0.8c0.439-0.675,1.13-1.012,2.103-1.012
		C54.145,10.931,55.313,12.068,55.313,13.856"/>
	<path clip-path="url(#SVGID_2_)" fill="#4E4E4E" d="M63.974,15.026c0,0.267-0.023,0.674-0.055,0.831h-5.076
		c0.188,0.627,0.659,0.941,1.396,0.941c0.502,0,1.043-0.212,1.467-0.628l1.914,1.601c-0.753,0.816-1.977,1.35-3.515,1.35
		c-2.486,0-4.149-1.616-4.149-4.025c0-2.463,1.647-4.165,4.04-4.165C62.35,10.931,63.966,12.594,63.974,15.026 M58.851,14.171h2.338
		c-0.204-0.604-0.596-0.895-1.177-0.895C59.416,13.276,59.031,13.566,58.851,14.171"/>
	<polygon clip-path="url(#SVGID_2_)" fill="#4E4E4E" points="80.345,18.917 77.363,18.917 77.363,12.045 75.377,18.917 
		72.643,18.917 70.656,12.045 70.656,18.917 67.675,18.917 67.675,7.934 71.81,7.934 74.014,14.539 76.21,7.934 80.345,7.934 	"/>
	<path clip-path="url(#SVGID_2_)" fill="#4E4E4E" d="M89.678,15.025c0,2.362-1.798,4.096-4.237,4.096s-4.236-1.733-4.236-4.096
		c0-2.361,1.797-4.095,4.236-4.095S89.678,12.664,89.678,15.025 M84.06,15.025c0,0.871,0.581,1.499,1.381,1.499
		c0.801,0,1.381-0.628,1.381-1.499c0-0.87-0.58-1.498-1.381-1.498C84.641,13.527,84.06,14.155,84.06,15.025"/>
	<path clip-path="url(#SVGID_2_)" fill="#4E4E4E" d="M97.88,13.856v5.061h-2.792v-4.182c0-0.776-0.369-1.192-0.981-1.192
		c-0.557,0-0.973,0.368-0.973,1.208v4.166h-2.793v-7.774h2.66v0.8c0.439-0.675,1.129-1.012,2.103-1.012
		C96.712,10.931,97.88,12.068,97.88,13.856"/>
	<path clip-path="url(#SVGID_2_)" fill="#4E4E4E" d="M108.642,11.754c0.439-0.549,1.09-0.823,1.969-0.823
		c1.608,0,2.777,1.137,2.777,2.927v5.06h-2.793v-4.182c0-0.776-0.368-1.192-0.98-1.192c-0.542,0-0.973,0.354-0.973,1.208v4.166
		h-2.793V7.604h2.793V11.754z"/>
	<path clip-path="url(#SVGID_2_)" fill="#4E4E4E" d="M98.901,11.143c0.53,0,0.96-0.375,0.96-0.904h0.123v1.079h-1.083V11.143z"/>
	<path clip-path="url(#SVGID_2_)" fill="#4E4F4F" d="M102.654,15.222v-1.616h2.326v-2.463h-2.326V8.914h-2.793v2.229h-1.412v2.463
		h1.412v2.048c0,1.906,0.902,3.264,3.115,3.264c0.848,0,1.469-0.14,2.004-0.375V16.32h-1.283
		C103.094,16.32,102.654,16.062,102.654,15.222"/>
	<rect x="102.976" y="17.83" clip-path="url(#SVGID_2_)" fill="#4E4F4F" width="2.005" height="1.087"/>
	<polygon clip-path="url(#SVGID_2_)" fill="#79C8EC" points="16.269,4.928 8.035,9.99 8.035,15.792 8.035,21.593 16.269,16.53 
		24.503,21.593 24.503,15.792 24.503,9.99 	"/>
	<polygon clip-path="url(#SVGID_2_)" fill="#4DA9D4" points="8.035,21.593 16.269,16.531 16.269,10.729 8.035,15.792 	"/>
	<polygon clip-path="url(#SVGID_2_)" fill="#388CB3" points="24.503,21.593 24.503,15.792 16.269,10.729 16.269,16.531 	"/>
	<polygon clip-path="url(#SVGID_2_)" fill="#4DA9D4" points="24.503,9.99 16.269,4.929 16.269,10.729 24.503,15.791 	"/>
</g>
</svg>
